<?xml version="1.0" standalone="no"?>
<!DOCTYPE svg PUBLIC "-//W3C//DTD SVG 20010904//EN"
 "http://www.w3.org/TR/2001/REC-SVG-20010904/DTD/svg10.dtd">
<svg version="1.0" xmlns="http://www.w3.org/2000/svg"
 width="201.000000pt" height="201.000000pt" viewBox="0 0 201.000000 201.000000"
 preserveAspectRatio="xMidYMid meet">
<metadata>
Created by potrace 1.14, written by Peter Selinger 2001-2017
</metadata>
<g transform="translate(0.000000,201.000000) scale(0.100000,-0.100000)"
fill="#000000" stroke="none">
<path d="M605 1774 c-51 -12 -114 -40 -155 -68 -25 -17 -54 -33 -65 -36 -11
-3 -21 -15 -23 -25 -2 -11 -12 -29 -23 -40 -80 -88 -81 -292 -2 -419 23 -35
31 -96 24 -172 -1 -6 -43 -30 -95 -54 l-95 -42 5 -42 c3 -22 6 -63 9 -91 2
-27 4 -50 5 -50 9 0 7 -82 -2 -92 -12 -15 -12 -66 0 -146 l7 -44 80 38 c44 21
82 36 84 33 3 -2 4 -38 4 -78 l-2 -74 710 -1 709 -2 0 651 0 650 -412 0 -413
1 -39 29 c-22 16 -64 39 -95 51 -54 20 -174 33 -216 23z"/>
</g>
</svg>
