<svg xmlns="http://www.w3.org/2000/svg" width="256" height="256" preserveAspectRatio="xMidYMid meet" version="1.0" viewBox="0 0 192 192"><metadata>Created by potrace 1.14, written by Peter Selinger 2001-2017</metadata><g fill="#000" stroke="none"><path d="M500 1647 c-58 -17 -136 -56 -157 -79 -9 -10 -27 -18 -41 -18 -17 0 -22 -4 -19 -14 3 -8 -7 -31 -23 -51 -82 -103 -83 -291 -3 -419 24 -37 32 -93 24 -172 -1 -6 -40 -29 -88 -50 -96 -42 -104 -49 -98 -79 2 -11 7 -51 10 -90 3 -38 8 -87 12 -107 4 -29 2 -39 -10 -44 -9 -3 -14 -11 -12 -17 2 -7 6 -47 9 -91 3 -43 6 -79 8 -81 2 -1 39 15 83 35 44 21 82 37 85 35 3 -2 5 -37 4 -79 l-1 -76 708 0 709 0 0 650 0 650 -412 0 -413 1 -39 29 c-84 64 -239 94 -336 67z" transform="translate(0.000000,192.000000) scale(0.100000,-0.100000)"/></g></svg>